<mxfile host="app.diagrams.net" modified="2021-11-03T11:09:10.264Z" agent="5.0 (Windows NT 10.0; Win64; x64) AppleWebKit/537.36 (KHTML, like Gecko) Chrome/95.0.4638.69 Safari/537.36" etag="H35j27siXJ4qEaTKe6N9" version="15.6.6" type="github">
  <diagram id="C5RBs43oDa-KdzZeNtuy" name="Page-1">
    <mxGraphModel dx="1066" dy="1682" grid="1" gridSize="10" guides="1" tooltips="1" connect="1" arrows="1" fold="1" page="1" pageScale="1" pageWidth="827" pageHeight="1169" math="0" shadow="0">
      <root>
        <mxCell id="WIyWlLk6GJQsqaUBKTNV-0" />
        <mxCell id="WIyWlLk6GJQsqaUBKTNV-1" parent="WIyWlLk6GJQsqaUBKTNV-0" />
        <mxCell id="oVAPwuiKomyA13rSTsH_-3" style="edgeStyle=orthogonalEdgeStyle;rounded=0;orthogonalLoop=1;jettySize=auto;html=1;entryX=0;entryY=0.5;entryDx=0;entryDy=0;" edge="1" parent="WIyWlLk6GJQsqaUBKTNV-1" source="oVAPwuiKomyA13rSTsH_-2" target="oVAPwuiKomyA13rSTsH_-4">
          <mxGeometry relative="1" as="geometry">
            <mxPoint x="440" y="-20" as="targetPoint" />
          </mxGeometry>
        </mxCell>
        <mxCell id="oVAPwuiKomyA13rSTsH_-2" value="send_FoN()&lt;br&gt;(쓰레기통 확인)" style="rounded=1;whiteSpace=wrap;html=1;fontSize=12;glass=0;strokeWidth=1;shadow=0;" vertex="1" parent="WIyWlLk6GJQsqaUBKTNV-1">
          <mxGeometry x="160" y="-40" width="120" height="40" as="geometry" />
        </mxCell>
        <mxCell id="oVAPwuiKomyA13rSTsH_-6" style="edgeStyle=orthogonalEdgeStyle;rounded=0;orthogonalLoop=1;jettySize=auto;html=1;" edge="1" parent="WIyWlLk6GJQsqaUBKTNV-1">
          <mxGeometry relative="1" as="geometry">
            <mxPoint x="680" y="20" as="targetPoint" />
            <mxPoint x="560" y="20" as="sourcePoint" />
          </mxGeometry>
        </mxCell>
        <mxCell id="oVAPwuiKomyA13rSTsH_-4" value="SerialPort.Read(Ardu)" style="rounded=1;whiteSpace=wrap;html=1;fontSize=12;glass=0;strokeWidth=1;shadow=0;" vertex="1" parent="WIyWlLk6GJQsqaUBKTNV-1">
          <mxGeometry x="400" y="-40" width="160" height="40" as="geometry" />
        </mxCell>
        <mxCell id="oVAPwuiKomyA13rSTsH_-7" value="C ,B, N 전송" style="text;html=1;strokeColor=none;fillColor=none;align=center;verticalAlign=middle;whiteSpace=wrap;rounded=0;" vertex="1" parent="WIyWlLk6GJQsqaUBKTNV-1">
          <mxGeometry x="310" y="-50" width="70" height="30" as="geometry" />
        </mxCell>
        <mxCell id="oVAPwuiKomyA13rSTsH_-8" value="C ,B, N 전송" style="text;html=1;strokeColor=none;fillColor=none;align=center;verticalAlign=middle;whiteSpace=wrap;rounded=0;" vertex="1" parent="WIyWlLk6GJQsqaUBKTNV-1">
          <mxGeometry x="580" y="-10" width="70" height="30" as="geometry" />
        </mxCell>
        <mxCell id="oVAPwuiKomyA13rSTsH_-38" style="edgeStyle=orthogonalEdgeStyle;rounded=0;orthogonalLoop=1;jettySize=auto;html=1;" edge="1" parent="WIyWlLk6GJQsqaUBKTNV-1" source="oVAPwuiKomyA13rSTsH_-9" target="oVAPwuiKomyA13rSTsH_-35">
          <mxGeometry relative="1" as="geometry" />
        </mxCell>
        <mxCell id="oVAPwuiKomyA13rSTsH_-9" value="nodejs" style="rounded=1;whiteSpace=wrap;html=1;fontSize=12;glass=0;strokeWidth=1;shadow=0;" vertex="1" parent="WIyWlLk6GJQsqaUBKTNV-1">
          <mxGeometry x="680" width="120" height="40" as="geometry" />
        </mxCell>
        <mxCell id="oVAPwuiKomyA13rSTsH_-10" value="SerialPort.Write(Node)" style="rounded=1;whiteSpace=wrap;html=1;fontSize=12;glass=0;strokeWidth=1;shadow=0;" vertex="1" parent="WIyWlLk6GJQsqaUBKTNV-1">
          <mxGeometry x="400" width="160" height="40" as="geometry" />
        </mxCell>
        <mxCell id="oVAPwuiKomyA13rSTsH_-14" style="edgeStyle=orthogonalEdgeStyle;rounded=0;orthogonalLoop=1;jettySize=auto;html=1;entryX=0;entryY=0.5;entryDx=0;entryDy=0;" edge="1" parent="WIyWlLk6GJQsqaUBKTNV-1" source="oVAPwuiKomyA13rSTsH_-13">
          <mxGeometry relative="1" as="geometry">
            <mxPoint x="400" y="60" as="targetPoint" />
          </mxGeometry>
        </mxCell>
        <mxCell id="oVAPwuiKomyA13rSTsH_-13" value="send_Obj()&lt;br&gt;(물체 거리감지)" style="rounded=1;whiteSpace=wrap;html=1;fontSize=12;glass=0;strokeWidth=1;shadow=0;" vertex="1" parent="WIyWlLk6GJQsqaUBKTNV-1">
          <mxGeometry x="160" y="40" width="120" height="40" as="geometry" />
        </mxCell>
        <mxCell id="oVAPwuiKomyA13rSTsH_-15" value="SerialPort.Read(Ardu)" style="rounded=1;whiteSpace=wrap;html=1;fontSize=12;glass=0;strokeWidth=1;shadow=0;" vertex="1" parent="WIyWlLk6GJQsqaUBKTNV-1">
          <mxGeometry x="400" y="40" width="160" height="40" as="geometry" />
        </mxCell>
        <mxCell id="oVAPwuiKomyA13rSTsH_-16" value="find object" style="rounded=1;whiteSpace=wrap;html=1;fontSize=12;glass=0;strokeWidth=1;shadow=0;" vertex="1" parent="WIyWlLk6GJQsqaUBKTNV-1">
          <mxGeometry x="400" y="80" width="160" height="40" as="geometry" />
        </mxCell>
        <mxCell id="oVAPwuiKomyA13rSTsH_-23" style="edgeStyle=orthogonalEdgeStyle;rounded=0;orthogonalLoop=1;jettySize=auto;html=1;entryX=1;entryY=0.5;entryDx=0;entryDy=0;" edge="1" parent="WIyWlLk6GJQsqaUBKTNV-1" source="oVAPwuiKomyA13rSTsH_-20" target="oVAPwuiKomyA13rSTsH_-22">
          <mxGeometry relative="1" as="geometry" />
        </mxCell>
        <mxCell id="oVAPwuiKomyA13rSTsH_-20" value="SerialPort.Write(Ardu)" style="rounded=1;whiteSpace=wrap;html=1;fontSize=12;glass=0;strokeWidth=1;shadow=0;" vertex="1" parent="WIyWlLk6GJQsqaUBKTNV-1">
          <mxGeometry x="400" y="120" width="160" height="40" as="geometry" />
        </mxCell>
        <mxCell id="oVAPwuiKomyA13rSTsH_-25" style="edgeStyle=orthogonalEdgeStyle;rounded=0;orthogonalLoop=1;jettySize=auto;html=1;entryX=0;entryY=0.5;entryDx=0;entryDy=0;" edge="1" parent="WIyWlLk6GJQsqaUBKTNV-1" source="oVAPwuiKomyA13rSTsH_-22" target="oVAPwuiKomyA13rSTsH_-13">
          <mxGeometry relative="1" as="geometry">
            <Array as="points">
              <mxPoint x="80" y="140" />
              <mxPoint x="80" y="60" />
            </Array>
          </mxGeometry>
        </mxCell>
        <mxCell id="oVAPwuiKomyA13rSTsH_-30" style="edgeStyle=orthogonalEdgeStyle;rounded=0;orthogonalLoop=1;jettySize=auto;html=1;entryX=0;entryY=0.5;entryDx=0;entryDy=0;" edge="1" parent="WIyWlLk6GJQsqaUBKTNV-1" source="oVAPwuiKomyA13rSTsH_-22" target="oVAPwuiKomyA13rSTsH_-2">
          <mxGeometry relative="1" as="geometry">
            <Array as="points">
              <mxPoint x="220" y="210" />
              <mxPoint x="40" y="210" />
              <mxPoint x="40" y="-20" />
            </Array>
          </mxGeometry>
        </mxCell>
        <mxCell id="oVAPwuiKomyA13rSTsH_-22" value="servo()" style="rounded=1;whiteSpace=wrap;html=1;fontSize=12;glass=0;strokeWidth=1;shadow=0;" vertex="1" parent="WIyWlLk6GJQsqaUBKTNV-1">
          <mxGeometry x="160" y="120" width="120" height="40" as="geometry" />
        </mxCell>
        <mxCell id="oVAPwuiKomyA13rSTsH_-26" value="P 전송" style="text;html=1;strokeColor=none;fillColor=none;align=center;verticalAlign=middle;whiteSpace=wrap;rounded=0;fontColor=default;" vertex="1" parent="WIyWlLk6GJQsqaUBKTNV-1">
          <mxGeometry x="300" y="30" width="70" height="30" as="geometry" />
        </mxCell>
        <mxCell id="oVAPwuiKomyA13rSTsH_-27" value="P,C,N 전송" style="text;html=1;strokeColor=none;fillColor=none;align=center;verticalAlign=middle;whiteSpace=wrap;rounded=0;" vertex="1" parent="WIyWlLk6GJQsqaUBKTNV-1">
          <mxGeometry x="310" y="110" width="70" height="30" as="geometry" />
        </mxCell>
        <mxCell id="oVAPwuiKomyA13rSTsH_-28" value="N 일때" style="text;html=1;strokeColor=none;fillColor=none;align=center;verticalAlign=middle;whiteSpace=wrap;rounded=0;" vertex="1" parent="WIyWlLk6GJQsqaUBKTNV-1">
          <mxGeometry x="70" y="85" width="70" height="30" as="geometry" />
        </mxCell>
        <mxCell id="oVAPwuiKomyA13rSTsH_-29" value="P,C 일때" style="text;html=1;strokeColor=none;fillColor=none;align=center;verticalAlign=middle;whiteSpace=wrap;rounded=0;" vertex="1" parent="WIyWlLk6GJQsqaUBKTNV-1">
          <mxGeometry x="80" y="180" width="70" height="30" as="geometry" />
        </mxCell>
        <mxCell id="oVAPwuiKomyA13rSTsH_-31" value="C ,B 일떄 부저 2번" style="text;html=1;strokeColor=none;fillColor=none;align=center;verticalAlign=middle;whiteSpace=wrap;rounded=0;" vertex="1" parent="WIyWlLk6GJQsqaUBKTNV-1">
          <mxGeometry x="150" y="-70" width="135" height="30" as="geometry" />
        </mxCell>
        <mxCell id="oVAPwuiKomyA13rSTsH_-33" value="N 일떄 부저 1번" style="text;html=1;strokeColor=none;fillColor=none;align=center;verticalAlign=middle;whiteSpace=wrap;rounded=0;" vertex="1" parent="WIyWlLk6GJQsqaUBKTNV-1">
          <mxGeometry x="150" y="85" width="135" height="30" as="geometry" />
        </mxCell>
        <mxCell id="oVAPwuiKomyA13rSTsH_-39" style="edgeStyle=orthogonalEdgeStyle;rounded=0;orthogonalLoop=1;jettySize=auto;html=1;entryX=0.5;entryY=0;entryDx=0;entryDy=0;" edge="1" parent="WIyWlLk6GJQsqaUBKTNV-1" source="oVAPwuiKomyA13rSTsH_-35" target="oVAPwuiKomyA13rSTsH_-37">
          <mxGeometry relative="1" as="geometry" />
        </mxCell>
        <mxCell id="oVAPwuiKomyA13rSTsH_-35" value="fcm" style="rounded=1;whiteSpace=wrap;html=1;fontSize=12;glass=0;strokeWidth=1;shadow=0;" vertex="1" parent="WIyWlLk6GJQsqaUBKTNV-1">
          <mxGeometry x="680" y="80" width="120" height="40" as="geometry" />
        </mxCell>
        <mxCell id="oVAPwuiKomyA13rSTsH_-37" value="android" style="rounded=1;whiteSpace=wrap;html=1;fontSize=12;glass=0;strokeWidth=1;shadow=0;" vertex="1" parent="WIyWlLk6GJQsqaUBKTNV-1">
          <mxGeometry x="680" y="160" width="120" height="40" as="geometry" />
        </mxCell>
        <mxCell id="oVAPwuiKomyA13rSTsH_-40" value="C ,B 전송" style="text;html=1;strokeColor=none;fillColor=none;align=center;verticalAlign=middle;whiteSpace=wrap;rounded=0;" vertex="1" parent="WIyWlLk6GJQsqaUBKTNV-1">
          <mxGeometry x="750" y="40" width="70" height="30" as="geometry" />
        </mxCell>
      </root>
    </mxGraphModel>
  </diagram>
</mxfile>
